<svg xmlns="http://www.w3.org/2000/svg" xmlns:xlink="http://www.w3.org/1999/xlink" width="48" zoomAndPan="magnify" viewBox="0 0 36 36.000001" height="48" preserveAspectRatio="xMidYMid meet" version="1.0"><defs><g/><clipPath id="7bbd7713f8"><path d="M 0.121094 0.171875 L 31.878906 0.171875 L 31.878906 13 L 0.121094 13 Z M 0.121094 0.171875 " clip-rule="nonzero"/></clipPath><clipPath id="515c810782"><rect x="0" width="32" y="0" height="13"/></clipPath><clipPath id="86385601cb"><path d="M 0.121094 8 L 21 8 L 21 20.957031 L 0.121094 20.957031 Z M 0.121094 8 " clip-rule="nonzero"/></clipPath><clipPath id="76c3f62df8"><rect x="0" width="21" y="0" height="13"/></clipPath><clipPath id="b26f306feb"><rect x="0" width="32" y="0" height="21"/></clipPath></defs><g transform="matrix(1, 0, 0, 1, 2, 8)"><g clip-path="url(#b26f306feb)"><g clip-path="url(#7bbd7713f8)"><g transform="matrix(1, 0, 0, 1, 0, 0.000000000000010658)"><g clip-path="url(#515c810782)"><g fill="#ffffff" fill-opacity="1"><g transform="translate(0.799736, 9.409068)"><g><path d="M 0.671875 0 L 0.671875 -6.4375 L 3.484375 -6.4375 C 3.960938 -6.4375 4.375 -6.359375 4.71875 -6.203125 C 5.0625 -6.046875 5.328125 -5.820312 5.515625 -5.53125 C 5.703125 -5.25 5.796875 -4.910156 5.796875 -4.515625 C 5.796875 -4.117188 5.691406 -3.785156 5.484375 -3.515625 C 5.273438 -3.242188 5.003906 -3.054688 4.671875 -2.953125 C 5.304688 -2.859375 5.648438 -2.488281 5.703125 -1.84375 L 5.859375 0 L 4.453125 0 L 4.34375 -1.625 C 4.320312 -1.875 4.242188 -2.054688 4.109375 -2.171875 C 3.972656 -2.296875 3.742188 -2.359375 3.421875 -2.359375 L 2.046875 -2.359375 L 2.046875 0 Z M 2.046875 -3.5 L 3.328125 -3.5 C 3.660156 -3.5 3.921875 -3.578125 4.109375 -3.734375 C 4.296875 -3.890625 4.390625 -4.109375 4.390625 -4.390625 C 4.390625 -4.679688 4.296875 -4.898438 4.109375 -5.046875 C 3.921875 -5.203125 3.648438 -5.28125 3.296875 -5.28125 L 2.046875 -5.28125 Z M 2.046875 -3.5 "/></g></g></g><g fill="#ffffff" fill-opacity="1"><g transform="translate(7.020438, 9.409068)"><g><path d="M 2.1875 0.109375 C 1.6875 0.109375 1.296875 -0.0507812 1.015625 -0.375 C 0.734375 -0.695312 0.59375 -1.148438 0.59375 -1.734375 L 0.59375 -4.859375 L 1.953125 -4.859375 L 1.953125 -2.046875 C 1.953125 -1.671875 2.007812 -1.394531 2.125 -1.21875 C 2.238281 -1.050781 2.421875 -0.96875 2.671875 -0.96875 C 2.953125 -0.96875 3.164062 -1.0625 3.3125 -1.25 C 3.46875 -1.445312 3.546875 -1.734375 3.546875 -2.109375 L 3.546875 -4.859375 L 4.90625 -4.859375 L 4.90625 0 L 3.671875 0 L 3.65625 -0.78125 C 3.40625 -0.1875 2.914062 0.109375 2.1875 0.109375 Z M 2.1875 0.109375 "/></g></g></g><g fill="#ffffff" fill-opacity="1"><g transform="translate(12.516751, 9.409068)"><g><path d="M 0.59375 0 L 0.59375 -4.859375 L 1.828125 -4.859375 L 1.84375 -4.0625 C 1.96875 -4.351562 2.144531 -4.578125 2.375 -4.734375 C 2.613281 -4.890625 2.878906 -4.96875 3.171875 -4.96875 C 3.523438 -4.96875 3.816406 -4.878906 4.046875 -4.703125 C 4.285156 -4.523438 4.457031 -4.285156 4.5625 -3.984375 C 4.675781 -4.296875 4.851562 -4.535156 5.09375 -4.703125 C 5.332031 -4.878906 5.609375 -4.96875 5.921875 -4.96875 C 6.421875 -4.96875 6.816406 -4.8125 7.109375 -4.5 C 7.410156 -4.1875 7.5625 -3.726562 7.5625 -3.125 L 7.5625 0 L 6.203125 0 L 6.203125 -2.75 C 6.203125 -3.507812 5.957031 -3.890625 5.46875 -3.890625 C 5.21875 -3.890625 5.023438 -3.785156 4.890625 -3.578125 C 4.753906 -3.378906 4.6875 -3.097656 4.6875 -2.734375 L 4.6875 0 L 3.46875 0 L 3.46875 -2.734375 C 3.46875 -3.109375 3.410156 -3.394531 3.296875 -3.59375 C 3.191406 -3.789062 3.003906 -3.890625 2.734375 -3.890625 C 2.484375 -3.890625 2.289062 -3.785156 2.15625 -3.578125 C 2.019531 -3.367188 1.953125 -3.085938 1.953125 -2.734375 L 1.953125 0 Z M 0.59375 0 "/></g></g></g><g fill="#ffffff" fill-opacity="1"><g transform="translate(20.548421, 9.409068)"><g><path d="M 2.046875 0.109375 C 1.535156 0.109375 1.117188 -0.00390625 0.796875 -0.234375 C 0.484375 -0.472656 0.328125 -0.800781 0.328125 -1.21875 C 0.328125 -1.644531 0.460938 -1.972656 0.734375 -2.203125 C 1.003906 -2.441406 1.40625 -2.613281 1.9375 -2.71875 L 3.5 -3.03125 C 3.5 -3.664062 3.222656 -3.984375 2.671875 -3.984375 C 2.171875 -3.984375 1.875 -3.75 1.78125 -3.28125 L 0.421875 -3.34375 C 0.503906 -3.875 0.738281 -4.273438 1.125 -4.546875 C 1.519531 -4.828125 2.035156 -4.96875 2.671875 -4.96875 C 3.398438 -4.96875 3.945312 -4.789062 4.3125 -4.4375 C 4.675781 -4.09375 4.859375 -3.59375 4.859375 -2.9375 L 4.859375 -1.28125 C 4.859375 -1.132812 4.878906 -1.039062 4.921875 -1 C 4.972656 -0.957031 5.039062 -0.9375 5.125 -0.9375 L 5.265625 -0.9375 L 5.265625 0 C 5.222656 0.0078125 5.15625 0.0195312 5.0625 0.03125 C 4.96875 0.0390625 4.875 0.046875 4.78125 0.046875 C 4.53125 0.046875 4.304688 -0.00390625 4.109375 -0.109375 C 3.921875 -0.210938 3.796875 -0.410156 3.734375 -0.703125 L 3.71875 -0.75 C 3.59375 -0.488281 3.382812 -0.28125 3.09375 -0.125 C 2.8125 0.03125 2.460938 0.109375 2.046875 0.109375 Z M 2.359375 -0.828125 C 2.703125 -0.828125 2.976562 -0.925781 3.1875 -1.125 C 3.394531 -1.320312 3.5 -1.59375 3.5 -1.9375 L 3.5 -2.171875 L 2.390625 -1.9375 C 1.953125 -1.851562 1.734375 -1.65625 1.734375 -1.34375 C 1.734375 -1 1.941406 -0.828125 2.359375 -0.828125 Z M 2.359375 -0.828125 "/></g></g></g><g fill="#ffffff" fill-opacity="1"><g transform="translate(25.854584, 9.409068)"><g><path d="M 0.59375 0 L 0.59375 -6.4375 L 1.953125 -6.4375 L 1.953125 -4.265625 C 2.085938 -4.503906 2.269531 -4.679688 2.5 -4.796875 C 2.738281 -4.910156 3.003906 -4.96875 3.296875 -4.96875 C 3.835938 -4.96875 4.242188 -4.796875 4.515625 -4.453125 C 4.796875 -4.109375 4.9375 -3.664062 4.9375 -3.125 L 4.9375 0 L 3.578125 0 L 3.578125 -2.796875 C 3.578125 -3.160156 3.519531 -3.429688 3.40625 -3.609375 C 3.289062 -3.796875 3.101562 -3.890625 2.84375 -3.890625 C 2.5625 -3.890625 2.34375 -3.789062 2.1875 -3.59375 C 2.03125 -3.40625 1.953125 -3.128906 1.953125 -2.765625 L 1.953125 0 Z M 0.59375 0 "/></g></g></g></g></g></g><g clip-path="url(#86385601cb)"><g transform="matrix(1, 0, 0, 1, 0, 8)"><g clip-path="url(#76c3f62df8)"><g fill="#86efac" fill-opacity="1"><g transform="translate(0.652197, 9.860233)"><g><path d="M 0.671875 0 L 0.671875 -6.4375 L 5.109375 -6.4375 L 5.109375 -5.28125 L 2.046875 -5.28125 L 2.046875 -3.71875 L 4.953125 -3.71875 L 4.953125 -2.578125 L 2.046875 -2.578125 L 2.046875 0 Z M 0.671875 0 "/></g></g></g><g fill="#86efac" fill-opacity="1"><g transform="translate(5.99457, 9.860233)"><g><path d="M 0.59375 0 L 0.59375 -4.859375 L 1.953125 -4.859375 L 1.953125 0 Z M 0.5625 -5.453125 L 0.5625 -6.546875 L 1.96875 -6.546875 L 1.96875 -5.453125 Z M 0.5625 -5.453125 "/></g></g></g><g fill="#86efac" fill-opacity="1"><g transform="translate(8.493718, 9.860233)"><g><path d="M 1.859375 0 C 1.460938 0 1.148438 -0.0976562 0.921875 -0.296875 C 0.703125 -0.492188 0.59375 -0.816406 0.59375 -1.265625 L 0.59375 -6.4375 L 1.953125 -6.4375 L 1.953125 -1.40625 C 1.953125 -1.269531 1.984375 -1.171875 2.046875 -1.109375 C 2.117188 -1.046875 2.21875 -1.015625 2.34375 -1.015625 L 2.671875 -1.015625 L 2.671875 0 Z M 1.859375 0 "/></g></g></g><g fill="#86efac" fill-opacity="1"><g transform="translate(11.327893, 9.860233)"><g><path d="M 0.59375 0 L 0.59375 -4.859375 L 1.828125 -4.859375 L 1.84375 -4.0625 C 1.96875 -4.351562 2.144531 -4.578125 2.375 -4.734375 C 2.613281 -4.890625 2.878906 -4.96875 3.171875 -4.96875 C 3.523438 -4.96875 3.816406 -4.878906 4.046875 -4.703125 C 4.285156 -4.523438 4.457031 -4.285156 4.5625 -3.984375 C 4.675781 -4.296875 4.851562 -4.535156 5.09375 -4.703125 C 5.332031 -4.878906 5.609375 -4.96875 5.921875 -4.96875 C 6.421875 -4.96875 6.816406 -4.8125 7.109375 -4.5 C 7.410156 -4.1875 7.5625 -3.726562 7.5625 -3.125 L 7.5625 0 L 6.203125 0 L 6.203125 -2.75 C 6.203125 -3.507812 5.957031 -3.890625 5.46875 -3.890625 C 5.21875 -3.890625 5.023438 -3.785156 4.890625 -3.578125 C 4.753906 -3.378906 4.6875 -3.097656 4.6875 -2.734375 L 4.6875 0 L 3.46875 0 L 3.46875 -2.734375 C 3.46875 -3.109375 3.410156 -3.394531 3.296875 -3.59375 C 3.191406 -3.789062 3.003906 -3.890625 2.734375 -3.890625 C 2.484375 -3.890625 2.289062 -3.785156 2.15625 -3.578125 C 2.019531 -3.367188 1.953125 -3.085938 1.953125 -2.734375 L 1.953125 0 Z M 0.59375 0 "/></g></g></g></g></g></g></g></g></svg>