<svg xmlns="http://www.w3.org/2000/svg" xmlns:xlink="http://www.w3.org/1999/xlink" width="48" zoomAndPan="magnify" viewBox="0 0 36 36.000001" height="48" preserveAspectRatio="xMidYMid meet" version="1.0"><defs><g/><clipPath id="84ee13bbf8"><path d="M 1 0.171875 L 29.246094 0.171875 L 29.246094 12 L 1 12 Z M 1 0.171875 " clip-rule="nonzero"/></clipPath><clipPath id="8f2d8f0e4e"><rect x="0" width="29" y="0" height="12"/></clipPath><clipPath id="3b3b3ca8b2"><path d="M 0.753906 7 L 20 7 L 20 18.855469 L 0.753906 18.855469 Z M 0.753906 7 " clip-rule="nonzero"/></clipPath><clipPath id="291b52b000"><rect x="0" width="20" y="0" height="12"/></clipPath><clipPath id="702d2b84b9"><rect x="0" width="30" y="0" height="19"/></clipPath></defs><g transform="matrix(1, 0, 0, 1, 3, 8)"><g clip-path="url(#702d2b84b9)"><g clip-path="url(#84ee13bbf8)"><g transform="matrix(1, 0, 0, 1, 1, 0.000000000000010658)"><g clip-path="url(#8f2d8f0e4e)"><g fill="#ffffff" fill-opacity="1"><g transform="translate(0.477004, 8.429676)"><g><path d="M 0.59375 0 L 0.59375 -5.765625 L 3.125 -5.765625 C 3.550781 -5.765625 3.914062 -5.691406 4.21875 -5.546875 C 4.53125 -5.410156 4.769531 -5.210938 4.9375 -4.953125 C 5.113281 -4.703125 5.203125 -4.398438 5.203125 -4.046875 C 5.203125 -3.691406 5.109375 -3.390625 4.921875 -3.140625 C 4.734375 -2.898438 4.488281 -2.738281 4.1875 -2.65625 C 4.75 -2.570312 5.054688 -2.238281 5.109375 -1.65625 L 5.25 0 L 4 0 L 3.890625 -1.46875 C 3.878906 -1.6875 3.8125 -1.847656 3.6875 -1.953125 C 3.5625 -2.054688 3.351562 -2.109375 3.0625 -2.109375 L 1.84375 -2.109375 L 1.84375 0 Z M 1.84375 -3.140625 L 2.984375 -3.140625 C 3.285156 -3.140625 3.519531 -3.207031 3.6875 -3.34375 C 3.851562 -3.488281 3.9375 -3.6875 3.9375 -3.9375 C 3.9375 -4.195312 3.847656 -4.394531 3.671875 -4.53125 C 3.503906 -4.664062 3.265625 -4.734375 2.953125 -4.734375 L 1.84375 -4.734375 Z M 1.84375 -3.140625 "/></g></g></g><g fill="#ffffff" fill-opacity="1"><g transform="translate(6.061505, 8.429676)"><g><path d="M 1.96875 0.09375 C 1.519531 0.09375 1.164062 -0.046875 0.90625 -0.328125 C 0.65625 -0.617188 0.53125 -1.023438 0.53125 -1.546875 L 0.53125 -4.359375 L 1.75 -4.359375 L 1.75 -1.84375 C 1.75 -1.5 1.800781 -1.25 1.90625 -1.09375 C 2.007812 -0.945312 2.171875 -0.875 2.390625 -0.875 C 2.640625 -0.875 2.832031 -0.957031 2.96875 -1.125 C 3.113281 -1.289062 3.1875 -1.546875 3.1875 -1.890625 L 3.1875 -4.359375 L 4.40625 -4.359375 L 4.40625 0 L 3.296875 0 L 3.28125 -0.703125 C 3.050781 -0.171875 2.613281 0.09375 1.96875 0.09375 Z M 1.96875 0.09375 "/></g></g></g><g fill="#ffffff" fill-opacity="1"><g transform="translate(10.9957, 8.429676)"><g><path d="M 0.53125 0 L 0.53125 -4.359375 L 1.640625 -4.359375 L 1.65625 -3.640625 C 1.757812 -3.898438 1.914062 -4.097656 2.125 -4.234375 C 2.34375 -4.378906 2.582031 -4.453125 2.84375 -4.453125 C 3.15625 -4.453125 3.414062 -4.367188 3.625 -4.203125 C 3.84375 -4.046875 4 -3.832031 4.09375 -3.5625 C 4.1875 -3.851562 4.34375 -4.070312 4.5625 -4.21875 C 4.78125 -4.375 5.03125 -4.453125 5.3125 -4.453125 C 5.757812 -4.453125 6.113281 -4.3125 6.375 -4.03125 C 6.644531 -3.75 6.78125 -3.335938 6.78125 -2.796875 L 6.78125 0 L 5.5625 0 L 5.5625 -2.46875 C 5.5625 -3.144531 5.34375 -3.484375 4.90625 -3.484375 C 4.675781 -3.484375 4.5 -3.390625 4.375 -3.203125 C 4.257812 -3.023438 4.203125 -2.773438 4.203125 -2.453125 L 4.203125 0 L 3.109375 0 L 3.109375 -2.453125 C 3.109375 -2.785156 3.054688 -3.039062 2.953125 -3.21875 C 2.859375 -3.394531 2.691406 -3.484375 2.453125 -3.484375 C 2.234375 -3.484375 2.0625 -3.390625 1.9375 -3.203125 C 1.8125 -3.023438 1.75 -2.773438 1.75 -2.453125 L 1.75 0 Z M 0.53125 0 "/></g></g></g><g fill="#ffffff" fill-opacity="1"><g transform="translate(18.205959, 8.429676)"><g><path d="M 1.828125 0.09375 C 1.367188 0.09375 1 -0.0078125 0.71875 -0.21875 C 0.4375 -0.425781 0.296875 -0.71875 0.296875 -1.09375 C 0.296875 -1.476562 0.414062 -1.773438 0.65625 -1.984375 C 0.90625 -2.191406 1.265625 -2.34375 1.734375 -2.4375 L 3.140625 -2.71875 C 3.140625 -3.28125 2.890625 -3.5625 2.390625 -3.5625 C 1.941406 -3.5625 1.675781 -3.351562 1.59375 -2.9375 L 0.375 -3 C 0.457031 -3.476562 0.671875 -3.835938 1.015625 -4.078125 C 1.367188 -4.328125 1.828125 -4.453125 2.390625 -4.453125 C 3.046875 -4.453125 3.535156 -4.296875 3.859375 -3.984375 C 4.191406 -3.671875 4.359375 -3.21875 4.359375 -2.625 L 4.359375 -1.140625 C 4.359375 -1.015625 4.378906 -0.929688 4.421875 -0.890625 C 4.460938 -0.859375 4.519531 -0.84375 4.59375 -0.84375 L 4.71875 -0.84375 L 4.71875 0 C 4.675781 0.0078125 4.613281 0.0195312 4.53125 0.03125 C 4.445312 0.0390625 4.367188 0.046875 4.296875 0.046875 C 4.066406 0.046875 3.863281 0 3.6875 -0.09375 C 3.507812 -0.1875 3.394531 -0.363281 3.34375 -0.625 L 3.328125 -0.671875 C 3.222656 -0.429688 3.039062 -0.242188 2.78125 -0.109375 C 2.519531 0.0234375 2.203125 0.09375 1.828125 0.09375 Z M 2.125 -0.734375 C 2.425781 -0.734375 2.671875 -0.820312 2.859375 -1 C 3.046875 -1.1875 3.140625 -1.429688 3.140625 -1.734375 L 3.140625 -1.953125 L 2.140625 -1.734375 C 1.742188 -1.660156 1.546875 -1.484375 1.546875 -1.203125 C 1.546875 -0.890625 1.738281 -0.734375 2.125 -0.734375 Z M 2.125 -0.734375 "/></g></g></g><g fill="#ffffff" fill-opacity="1"><g transform="translate(22.969451, 8.429676)"><g><path d="M 0.53125 0 L 0.53125 -5.765625 L 1.75 -5.765625 L 1.75 -3.8125 C 1.875 -4.03125 2.039062 -4.191406 2.25 -4.296875 C 2.457031 -4.398438 2.691406 -4.453125 2.953125 -4.453125 C 3.441406 -4.453125 3.804688 -4.296875 4.046875 -3.984375 C 4.296875 -3.679688 4.421875 -3.285156 4.421875 -2.796875 L 4.421875 0 L 3.203125 0 L 3.203125 -2.515625 C 3.203125 -2.835938 3.148438 -3.078125 3.046875 -3.234375 C 2.953125 -3.398438 2.785156 -3.484375 2.546875 -3.484375 C 2.296875 -3.484375 2.097656 -3.394531 1.953125 -3.21875 C 1.816406 -3.050781 1.75 -2.804688 1.75 -2.484375 L 1.75 0 Z M 0.53125 0 "/></g></g></g></g></g></g><g clip-path="url(#3b3b3ca8b2)"><g transform="matrix(1, 0, 0, 1, 0, 7)"><g clip-path="url(#291b52b000)"><g fill="#86efac" fill-opacity="1"><g transform="translate(1.344554, 9.016528)"><g><path d="M 0.59375 0 L 0.59375 -5.765625 L 4.578125 -5.765625 L 4.578125 -4.734375 L 1.84375 -4.734375 L 1.84375 -3.328125 L 4.4375 -3.328125 L 4.4375 -2.3125 L 1.84375 -2.3125 L 1.84375 0 Z M 0.59375 0 "/></g></g></g><g fill="#86efac" fill-opacity="1"><g transform="translate(6.140554, 9.016528)"><g><path d="M 0.53125 0 L 0.53125 -4.359375 L 1.75 -4.359375 L 1.75 0 Z M 0.515625 -4.890625 L 0.515625 -5.859375 L 1.78125 -5.859375 L 1.78125 -4.890625 Z M 0.515625 -4.890625 "/></g></g></g><g fill="#86efac" fill-opacity="1"><g transform="translate(8.384109, 9.016528)"><g><path d="M 1.671875 0 C 1.316406 0 1.035156 -0.0859375 0.828125 -0.265625 C 0.628906 -0.441406 0.53125 -0.734375 0.53125 -1.140625 L 0.53125 -5.765625 L 1.75 -5.765625 L 1.75 -1.265625 C 1.75 -1.140625 1.78125 -1.046875 1.84375 -0.984375 C 1.90625 -0.929688 1.992188 -0.90625 2.109375 -0.90625 L 2.390625 -0.90625 L 2.390625 0 Z M 1.671875 0 "/></g></g></g><g fill="#86efac" fill-opacity="1"><g transform="translate(10.928429, 9.016528)"><g><path d="M 0.53125 0 L 0.53125 -4.359375 L 1.640625 -4.359375 L 1.65625 -3.640625 C 1.757812 -3.898438 1.914062 -4.097656 2.125 -4.234375 C 2.34375 -4.378906 2.582031 -4.453125 2.84375 -4.453125 C 3.15625 -4.453125 3.414062 -4.367188 3.625 -4.203125 C 3.84375 -4.046875 4 -3.832031 4.09375 -3.5625 C 4.1875 -3.851562 4.34375 -4.070312 4.5625 -4.21875 C 4.78125 -4.375 5.03125 -4.453125 5.3125 -4.453125 C 5.757812 -4.453125 6.113281 -4.3125 6.375 -4.03125 C 6.644531 -3.75 6.78125 -3.335938 6.78125 -2.796875 L 6.78125 0 L 5.5625 0 L 5.5625 -2.46875 C 5.5625 -3.144531 5.34375 -3.484375 4.90625 -3.484375 C 4.675781 -3.484375 4.5 -3.390625 4.375 -3.203125 C 4.257812 -3.023438 4.203125 -2.773438 4.203125 -2.453125 L 4.203125 0 L 3.109375 0 L 3.109375 -2.453125 C 3.109375 -2.785156 3.054688 -3.039062 2.953125 -3.21875 C 2.859375 -3.394531 2.691406 -3.484375 2.453125 -3.484375 C 2.234375 -3.484375 2.0625 -3.390625 1.9375 -3.203125 C 1.8125 -3.023438 1.75 -2.773438 1.75 -2.453125 L 1.75 0 Z M 0.53125 0 "/></g></g></g></g></g></g></g></g></svg>